<?xml version="1.0" standalone="no"?>
<!DOCTYPE svg PUBLIC "-//W3C//DTD SVG 20010904//EN"
 "http://www.w3.org/TR/2001/REC-SVG-20010904/DTD/svg10.dtd">
<svg version="1.0" xmlns="http://www.w3.org/2000/svg"
 width="54.000000pt" height="54.000000pt" viewBox="0 0 54.000000 54.000000"
 preserveAspectRatio="xMidYMid meet">

<g transform="translate(0.000000,54.000000) scale(0.100000,-0.100000)"
fill="#000000" stroke="none">
<path d="M0 270 l0 -270 270 0 270 0 0 270 0 270 -270 0 -270 0 0 -270z m139
44 c-14 -17 2 -19 18 -3 6 6 17 9 25 7 7 -3 -6 -14 -30 -27 -24 -12 -47 -20
-50 -17 -3 3 -1 6 5 6 5 0 10 6 10 13 0 6 4 21 9 31 5 15 4 17 -6 11 -9 -5
-11 -4 -6 4 6 9 11 9 22 0 11 -9 11 -15 3 -25z m91 -49 c0 -20 -5 -25 -25 -25
-20 0 -25 5 -25 25 0 20 5 25 25 25 20 0 25 -5 25 -25z m44 11 c9 24 19 10 11
-15 -6 -21 -35 -30 -35 -12 0 5 -3 18 -6 28 -5 17 -5 17 9 0 14 -16 15 -16 21
-1z m74 -9 c4 -20 -25 -34 -40 -19 -15 15 -1 44 19 40 10 -2 19 -11 21 -21z
m45 4 c6 -23 0 -31 -22 -31 -14 0 -14 2 -1 10 10 6 11 10 3 10 -7 0 -13 7 -13
15 0 22 27 18 33 -4z m37 -21 c0 -5 -4 -10 -10 -10 -5 0 -10 5 -10 10 0 6 5
10 10 10 6 0 10 -4 10 -10z m-83 -37 c-31 -2 -83 -2 -115 0 -31 2 -5 3 58 3
63 0 89 -1 57 -3z"/>
<path d="M195 269 c-10 -15 3 -25 16 -12 7 7 7 13 1 17 -6 3 -14 1 -17 -5z"/>
<path d="M320 264 c0 -8 5 -12 10 -9 6 4 8 11 5 16 -9 14 -15 11 -15 -7z"/>
</g>
</svg>
